<svg width="16" height="16" viewBox="0 0 16 16" fill="none" xmlns="http://www.w3.org/2000/svg">
<path d="M15.9599 13.7101C15.8896 13.3722 15.5587 13.1552 15.2206 13.2256C14.8827 13.2959 14.6658 13.6269 14.7362 13.9648C14.7767 14.1595 14.7284 14.359 14.6038 14.5123C14.5316 14.6011 14.3706 14.75 14.1038 14.75H1.89713C1.63032 14.75 1.46935 14.6011 1.39716 14.5123C1.27251 14.359 1.22426 14.1595 1.26479 13.9648C1.91341 10.8494 4.66138 8.57356 7.83479 8.49681C7.88976 8.49894 7.94498 8.5 8.00048 8.5C8.05616 8.5 8.1116 8.49891 8.16679 8.49678C10.4022 8.55041 12.4683 9.68262 13.7195 11.5487C13.9117 11.8354 14.2999 11.9119 14.5867 11.7197C14.8734 11.5275 14.95 11.1393 14.7577 10.8526C13.7322 9.32306 12.243 8.21088 10.5451 7.65203C11.5798 6.87613 12.2505 5.63991 12.2505 4.25C12.2505 1.90656 10.3439 0 8.00048 0C5.65701 0 3.75048 1.90656 3.75048 4.25C3.75048 5.64075 4.42198 6.87762 5.45776 7.65347C4.50876 7.96591 3.61829 8.45206 2.83891 9.09313C1.40979 10.2687 0.416132 11.9083 0.0410387 13.7101C-0.0765238 14.2747 0.06432 14.8545 0.427382 15.301C0.788664 15.7452 1.32438 16 1.89713 16H14.1038C14.6766 16 15.2123 15.7452 15.5735 15.301C15.9367 14.8545 16.0775 14.2747 15.9599 13.7101ZM5.00048 4.25C5.00048 2.59578 6.34626 1.25 8.00048 1.25C9.65469 1.25 11.0005 2.59578 11.0005 4.25C11.0005 5.85328 9.73626 7.16684 8.15232 7.24619C8.10179 7.24525 8.05116 7.24478 8.00048 7.24478C7.95004 7.24478 7.8996 7.24528 7.84923 7.24622C6.26501 7.16719 5.00048 5.8535 5.00048 4.25Z" fill="white"/>
</svg>
