<svg width="15" height="15" viewBox="0 0 15 15" fill="none" xmlns="http://www.w3.org/2000/svg">
<path d="M7.02429 3.42165C5.03145 3.42165 3.42402 5.02944 3.42402 7.02273C3.42402 9.01601 5.03145 10.6238 7.02429 10.6238C9.01713 10.6238 10.6246 9.01601 10.6246 7.02273C10.6246 5.02944 9.01713 3.42165 7.02429 3.42165ZM7.02429 9.3639C5.73647 9.3639 4.68365 8.31398 4.68365 7.02273C4.68365 5.73148 5.73333 4.68156 7.02429 4.68156C8.31525 4.68156 9.36494 5.73148 9.36494 7.02273C9.36494 8.31398 8.31212 9.3639 7.02429 9.3639ZM11.6116 3.27435C11.6116 3.74133 11.2356 4.11429 10.7718 4.11429C10.305 4.11429 9.93209 3.73819 9.93209 3.27435C9.93209 2.8105 10.3081 2.43441 10.7718 2.43441C11.2356 2.43441 11.6116 2.8105 11.6116 3.27435ZM13.9961 4.12682C13.9428 3.00168 13.6859 2.00504 12.8618 1.18391C12.0409 0.362772 11.0444 0.105776 9.91955 0.049362C8.7602 -0.016454 5.28526 -0.016454 4.1259 0.049362C3.00414 0.102642 2.00772 0.359638 1.18364 1.18077C0.359557 2.0019 0.105752 2.99855 0.049351 4.12369C-0.0164503 5.2833 -0.0164503 8.75902 0.049351 9.91863C0.102619 11.0438 0.359557 12.0404 1.18364 12.8615C2.00772 13.6827 3.00101 13.9397 4.1259 13.9961C5.28526 14.0619 8.7602 14.0619 9.91955 13.9961C11.0444 13.9428 12.0409 13.6858 12.8618 12.8615C13.6828 12.0404 13.9397 11.0438 13.9961 9.91863C14.0619 8.75902 14.0619 5.28644 13.9961 4.12682ZM12.4983 11.1629C12.2539 11.7772 11.7808 12.2504 11.1635 12.498C10.2392 12.8647 8.04578 12.7801 7.02429 12.7801C6.00281 12.7801 3.80629 12.8615 2.88508 12.498C2.27093 12.2535 1.79779 11.7803 1.55025 11.1629C1.18364 10.2383 1.26824 8.04444 1.26824 7.02273C1.26824 6.00101 1.18677 3.80401 1.55025 2.88259C1.79465 2.2683 2.2678 1.79505 2.88508 1.54746C3.80943 1.18077 6.00281 1.26539 7.02429 1.26539C8.04578 1.26539 10.2423 1.1839 11.1635 1.54746C11.7777 1.79192 12.2508 2.26517 12.4983 2.88259C12.8649 3.80714 12.7803 6.00101 12.7803 7.02273C12.7803 8.04444 12.8649 10.2414 12.4983 11.1629Z" fill="white"/>
</svg>
