<svg width="16" height="16" viewBox="0 0 16 16" fill="none" xmlns="http://www.w3.org/2000/svg">
<path d="M15.9985 12.8923C15.9762 12.2734 15.7184 11.6958 15.2726 11.266C14.3998 10.4243 13.6684 9.93844 12.9711 9.73694C12.0103 9.45925 11.1203 9.71175 10.3261 10.4874C10.3249 10.4886 10.3237 10.4898 10.3225 10.491L9.47751 11.3297C8.94941 11.032 7.92253 10.3783 6.81309 9.26891L6.73084 9.18672C5.62121 8.07712 4.96761 7.05005 4.6702 6.52255L5.50896 5.67751C5.51015 5.67632 5.51133 5.67514 5.51252 5.67392C6.28818 4.87973 6.54068 3.98979 6.26302 3.02887C6.06149 2.33159 5.57565 1.60027 4.73395 0.727425C4.30414 0.281704 3.72661 0.0238906 3.1077 0.00157802C2.48841 -0.0207658 1.89416 0.194798 1.43328 0.608487L1.41534 0.624612C1.40703 0.632081 1.39891 0.6398 1.39097 0.647706C0.473496 1.56518 -0.00744417 2.84959 8.71123e-05 4.36213C0.0129309 6.93158 1.42509 9.86997 3.77757 12.2224C4.22117 12.666 4.72533 13.105 5.27602 13.5273C5.54993 13.7373 5.94224 13.6855 6.15227 13.4116C6.36234 13.1376 6.31052 12.7453 6.03659 12.5353C5.52924 12.1463 5.06658 11.7436 4.66145 11.3386C2.53657 9.21372 1.26128 6.60339 1.25006 4.35591C1.24428 3.19103 1.59469 2.21874 2.26354 1.54293L2.26832 1.53862C2.7226 1.13083 3.41038 1.15565 3.8342 1.59512C5.4523 3.27319 5.33514 4.06541 4.62014 4.7986L3.46157 5.96586C3.27988 6.14892 3.22929 6.4248 3.3342 6.66042C3.3636 6.72649 4.07514 8.29877 5.84718 10.0708L5.92946 10.153C7.70128 11.9248 9.2736 12.6363 9.33966 12.6657C9.57523 12.7707 9.85117 12.7201 10.0342 12.5384L11.2015 11.3798C11.9348 10.6648 12.727 10.5477 14.405 12.1658C14.8444 12.5895 14.8693 13.2773 14.4616 13.7316L14.4571 13.7365C13.7868 14.3999 12.8249 14.75 11.6727 14.75C11.6632 14.75 11.6537 14.75 11.6442 14.7499C10.7232 14.7453 9.65673 14.4929 8.56013 14.0199C8.24325 13.8831 7.87541 14.0292 7.73872 14.3462C7.602 14.6632 7.74809 15.0309 8.06506 15.1677C9.33263 15.7144 10.5347 15.9944 11.638 15.9999C11.6497 16 11.6613 16 11.673 16C13.1703 16 14.442 15.5194 15.3524 14.6091C15.3603 14.6011 15.368 14.593 15.3754 14.5847L15.3917 14.5666C15.8053 14.1058 16.0209 13.5112 15.9985 12.8923Z" fill="white"/>
</svg>
