<svg width="150" height="64" viewBox="0 0 150 64" fill="none" xmlns="http://www.w3.org/2000/svg">
<path fill-rule="evenodd" clip-rule="evenodd" d="M118.108 26.3147C118.444 26.0475 118.758 25.8504 119.047 25.7123C122.697 23.3373 125.804 22.8943 128.384 24.6507C129.864 25.6581 131.054 26.5733 130.072 27.5369C129.148 28.4435 128.818 28.2677 127.188 27.3995C127.14 27.3743 127.092 27.3485 127.042 27.3221C127 27.2996 126.957 27.2766 126.913 27.2533C124.63 26.0428 122.468 27.5964 120.501 29.0091L120.295 29.1573C114.481 33.7807 110.197 37.4881 106.039 43.5613C102.829 48.2497 104.387 48.0833 109.078 45.0447C115.802 40.6886 123.039 31.8719 124.793 29.7103C126.943 27.0604 129.44 30.4092 128.266 32.0094C127.373 33.2267 126.47 34.4364 125.566 35.6462C123.948 37.8139 122.329 39.9818 120.77 42.1931C119.296 44.2859 120.229 44.7737 122.17 43.7488C131.776 38.6771 139.889 31.7995 147.736 24.6974C151.802 21.0172 149.444 27.9335 147.947 29.3965C133.991 43.0354 122.974 47.9801 119.24 47.0079C117.254 46.4906 115.875 44.6534 117.316 41.2842C114.866 43.916 110.491 47.55 106.252 49.6875C101.241 52.2144 98.6049 50.5241 101.563 46.0064C101.954 45.4083 102.334 44.8293 102.705 44.2669C95.5692 50.918 87.6298 57.0904 77.6031 60.479C73.4146 61.8945 70.9633 57.9053 75.1418 53.1865C85.7044 41.2586 94.209 33.5584 104.618 24.1336L104.619 24.1334L104.621 24.1308C105.717 23.1386 106.834 22.1272 107.977 21.0898C110.04 19.2171 111.133 16.9429 107.083 17.4834C101.535 18.2237 97.9586 20.9607 93.4487 24.412C91.9015 25.5961 90.2444 26.8642 88.3602 28.1646C86.9982 29.5835 86.735 24.4795 88.2973 23.401C98.0608 15.8405 103.405 13.5678 108.704 13.1478C114.385 12.6974 116.279 18.4579 110.925 23.7214C105.304 29.2463 100.216 33.8851 95.1443 38.5096C89.9817 43.2166 84.8353 47.9088 79.16 53.5056C76.9166 55.718 76.5563 57.5719 78.9606 56.5724C88.5947 52.5677 102.114 41.7278 109.473 34.755C111.747 31.966 114.161 29.5253 117.342 26.9312L117.342 26.9309L117.352 26.923C117.603 26.7184 117.855 26.5155 118.108 26.3147ZM36.4253 0.589339C42.5614 -1.55724 48.0383 2.27742 49.6796 10.1807C51.8171 20.4744 45.7563 33.0884 37.9652 43.793C30.9564 53.4231 23.7512 61.0006 17.1642 62.7307C11.4883 64.2216 7.54168 61.018 6.72558 54.9816C5.02742 54.6741 3.41493 54.2039 2.10872 52.8156L2.09414 52.7698C0.760475 51.5147 0.0134425 50.1216 0 47.7302C0.390941 33.0827 13.6055 8.57274 36.4253 0.589339ZM6.57635 53.1C6.56919 52.8385 6.56671 52.5732 6.56987 52.3034C7.09493 42.4694 11.6751 32.6912 20.177 22.9484C21.7022 21.2004 23.3686 25.2927 22.1387 26.7146C14.6819 35.3352 11.3526 45.4131 10.6839 56.2715C10.5378 58.6436 12.1797 58.5936 14.8833 58.0458C23.4068 56.3192 49.3264 28.0224 45.7552 8.26437C44.9844 3.99933 40.3984 3.61839 35.1074 5.86157C16.614 13.7021 3.36554 35.3191 4.03522 50.6017C4.28242 52.4078 5.27448 53.0053 6.57635 53.1ZM51.5264 31.4396C53.411 29.4505 55.2341 34.8006 53.71 35.9982C53.0999 36.4775 52.6441 36.8162 52.2764 37.0895C51.1529 37.9243 50.8525 38.1476 49.4878 39.9032C48.7794 40.8145 49.1002 40.9987 49.9299 40.6802C50.2706 40.5494 50.5892 40.4275 50.8889 40.313L50.8889 40.313C54.3819 38.9775 55.2962 38.6279 58.5904 36.4595C60.1502 34.5731 61.7738 32.7019 63.6519 30.7196C65.277 29.0044 66.8489 33.6176 65.5348 34.6503C63.4011 36.3267 61.8472 37.8991 60.3432 39.9521L57.3706 44.0097C56.3686 45.4018 57.1621 45.2237 58.2271 44.9759C60.4057 44.469 62.3958 43.9104 64.2262 43.3075C64.5379 42.2079 65.118 41.0169 66.0277 39.7692C67.3944 37.8947 70.9626 33.9132 75.0319 31.1792C79.6444 28.0804 84.7465 26.5676 84.9995 31.2556C85.0691 32.5462 83.8443 33.7012 81.1466 36.086C81.1412 36.1124 81.1358 36.139 81.1306 36.1658C77.0479 39.658 72.6249 42.1261 68.0833 43.9693C66.5313 47.0127 67.7035 49.3457 71.9722 46.7018C74.25 45.2909 76.6089 43.5558 78.9866 41.6631C80.114 40.8734 80.9004 42.5721 79.7262 43.2468C76.6925 45.6251 73.3825 47.9236 69.9808 49.7719C66.9495 50.7372 64.0697 48.8136 63.9457 45.4781C60.6929 46.5421 57.4142 47.3531 54.1884 48.0528C52.7795 48.6585 50.7572 46.2298 52.5209 44.0315C53.1974 43.1881 53.8455 42.3725 54.4774 41.5765C53.255 42.0646 52.1213 42.4604 51.0529 42.8334C49.0761 43.5236 47.3223 44.1359 45.6411 45.1112C44.9323 45.5224 43.9031 47.117 42.9716 48.5603C42.2643 49.6562 41.6132 50.6649 41.2013 51.0024C39.2242 52.6231 36.2757 49.7967 38.6174 46.8778C39.5064 45.7696 40.3533 44.7024 41.1781 43.6631C44.5433 39.4229 47.5405 35.6463 51.5264 31.4396ZM80.6662 34.1626C77.7696 36.5945 74.5257 38.9075 70.2443 40.9258C73.0845 37.532 77.0497 34.1382 80.7123 31.7895C83.5352 29.9788 83.6993 31.8474 80.6663 34.1626L80.6662 34.1626ZM95.4938 63.0079C95.8911 62.671 96.0897 62.2299 96.0897 61.6847C96.0897 61.1028 95.9003 60.6464 95.5212 60.3156C95.289 60.1134 94.8307 59.8653 94.146 59.5712C93.8771 59.4548 93.6845 59.3446 93.5684 59.2405C93.3851 59.075 93.2933 58.8791 93.2933 58.6523C93.2933 58.4748 93.3545 58.3278 93.4767 58.2114C93.6418 58.052 93.9016 57.9724 94.256 57.9724C94.476 57.9724 94.716 58.0046 94.9758 58.0689C95.2355 58.1332 95.4632 58.2053 95.6588 58.2848L95.7963 57.2556C95.509 57.1516 95.2157 57.0795 94.9161 57.0397C94.6166 56.9999 94.2988 56.98 93.9626 56.98C93.223 56.98 92.676 57.2035 92.3216 57.6508C92.0709 57.9693 91.9455 58.3491 91.9455 58.7902C91.9455 59.219 92.074 59.5743 92.3307 59.8561C92.5324 60.0767 92.899 60.3187 93.4309 60.5821C93.5776 60.6555 93.8007 60.7627 94.1001 60.9036C94.5158 61.1242 94.7236 61.3998 94.7236 61.7307C94.7236 61.9328 94.6335 62.112 94.4531 62.2682C94.2728 62.4245 94.0207 62.5025 93.6968 62.5025C93.4706 62.5025 93.2139 62.4672 92.9266 62.3969C92.6393 62.3264 92.3673 62.2329 92.1106 62.1166L91.9731 63.2377C92.2481 63.3418 92.5216 63.4214 92.7937 63.4766C93.0656 63.5317 93.3484 63.5593 93.6418 63.5593C94.4425 63.5593 95.0598 63.3755 95.4938 63.0079ZM101.769 58.1929H103.621V57.0535H98.6155V58.1929H100.468V63.4858H101.769V58.1929ZM111.42 62.7874C112.067 62.1992 112.391 61.36 112.391 60.2696C112.391 59.1731 112.064 58.3308 111.41 57.7427C110.848 57.2342 110.127 56.98 109.247 56.98C108.366 56.98 107.642 57.2372 107.074 57.7519C106.426 58.34 106.102 59.1792 106.102 60.2696C106.102 61.3662 106.429 62.2084 107.083 62.7966C107.645 63.305 108.366 63.5593 109.247 63.5593C110.127 63.5593 110.851 63.302 111.42 62.7874ZM110.319 58.2665C110.784 58.6585 111.016 59.3262 111.016 60.2696C111.016 61.213 110.781 61.8808 110.31 62.2729C110.017 62.5179 109.662 62.6404 109.247 62.6404C108.825 62.6404 108.467 62.5179 108.174 62.2729C107.709 61.8808 107.477 61.213 107.477 60.2696C107.477 59.3262 107.712 58.6585 108.183 58.2665C108.476 58.0214 108.831 57.8989 109.247 57.8989C109.668 57.8989 110.026 58.0214 110.319 58.2665ZM119.098 63.4858H120.556L119.511 60.9956C119.352 60.6157 119.129 60.3829 118.842 60.2972C119.16 60.2176 119.422 60.0858 119.63 59.9021C119.93 59.6325 120.079 59.265 120.079 58.7994C120.079 58.2909 119.933 57.8897 119.639 57.5957C119.285 57.2342 118.713 57.0535 117.925 57.0535H115.651V63.4858H116.953V60.8394H117.448C117.662 60.8394 117.832 60.8883 117.957 60.9865C118.082 61.0844 118.188 61.2375 118.273 61.4458L119.098 63.4858ZM118.585 58.4227C118.689 58.5636 118.741 58.7352 118.741 58.9373C118.741 59.1639 118.662 59.36 118.503 59.5254C118.307 59.7275 118.023 59.8285 117.65 59.8285H116.953V58.0644H117.65C118.096 58.0644 118.408 58.1838 118.585 58.4227ZM126.723 60.8761L129.033 57.0535H127.658L126.328 59.3139L126.081 59.7551L125.879 59.3139L124.559 57.0535H123.055L125.421 60.8578V63.4858H126.723V60.8761Z" fill="white"/>
</svg>
