<svg width="16" height="16" viewBox="0 0 16 16" fill="none" xmlns="http://www.w3.org/2000/svg">
<path d="M15.86 3.637C15.7413 3.491 15.5632 3.40625 15.375 3.40625H4.05425L4.00787 2.98025L4.00622 2.96656C3.78434 1.27538 2.33072 0 0.625 0C0.279813 0 0 0.279813 0 0.625C0 0.970187 0.279813 1.25 0.625 1.25C1.70331 1.25 2.62259 2.05466 2.766 3.12275L3.50891 9.94778C2.85922 10.2427 2.40625 10.8976 2.40625 11.6562C2.40625 11.6615 2.40631 11.6667 2.40644 11.6719C2.40631 11.6771 2.40625 11.6823 2.40625 11.6875C2.40625 12.7214 3.24738 13.5625 4.28125 13.5625H4.53556C4.472 13.7489 4.4375 13.9486 4.4375 14.1562C4.4375 15.1729 5.26459 16 6.28125 16C7.29791 16 8.125 15.1729 8.125 14.1562C8.125 13.9486 8.0905 13.7489 8.02694 13.5625H10.7231C10.6595 13.7489 10.625 13.9486 10.625 14.1562C10.625 15.1729 11.4521 16 12.4688 16C13.4854 16 14.3125 15.1729 14.3125 14.1562C14.3125 13.1396 13.4854 12.3125 12.4688 12.3125H4.28125C3.93663 12.3125 3.65625 12.0321 3.65625 11.6875C3.65625 11.6823 3.65619 11.6771 3.65606 11.6719C3.65619 11.6667 3.65625 11.6615 3.65625 11.6562C3.65625 11.3116 3.93663 11.0312 4.28125 11.0312H12.2603C13.3698 11.0312 14.388 10.3448 14.8543 9.28244C14.993 8.96637 14.8493 8.59769 14.5332 8.45894C14.2171 8.32022 13.8484 8.46397 13.7097 8.78003C13.4468 9.37891 12.8644 9.78125 12.2603 9.78125H4.74816L4.19031 4.65625H14.6062L14.3004 6.12238C14.2299 6.46028 14.4467 6.79134 14.7846 6.86181C14.8276 6.87081 14.8705 6.87512 14.9128 6.87512C15.2026 6.87512 15.4625 6.6725 15.524 6.37762L15.9868 4.15887C16.0252 3.97469 15.9787 3.783 15.86 3.637ZM12.4688 13.5625C12.7962 13.5625 13.0625 13.8288 13.0625 14.1562C13.0625 14.4837 12.7962 14.75 12.4688 14.75C12.1413 14.75 11.875 14.4837 11.875 14.1562C11.875 13.8288 12.1413 13.5625 12.4688 13.5625ZM6.28125 13.5625C6.60866 13.5625 6.875 13.8289 6.875 14.1562C6.875 14.4837 6.60866 14.75 6.28125 14.75C5.95384 14.75 5.6875 14.4837 5.6875 14.1562C5.6875 13.8288 5.95384 13.5625 6.28125 13.5625Z" fill="white"/>
</svg>
